<svg width="25" height="25" viewBox="0 0 25 25" fill="none" xmlns="http://www.w3.org/2000/svg">
<g clip-path="url(#clip0_1_1768)">
<path d="M20.1172 6.64062C20.1172 6.91013 20.336 7.12891 20.6055 7.12891C20.875 7.12891 21.0937 6.91013 21.0937 6.64062C21.0937 6.37112 20.875 6.15234 20.6055 6.15234C20.336 6.15234 20.1172 6.37112 20.1172 6.64062Z" fill="black"/>
<path d="M22.0703 12.5002C22.0703 13.1256 22.0076 13.7498 21.884 14.3556C21.83 14.6198 22.0005 14.8777 22.2647 14.9316C22.2977 14.9385 22.3305 14.9417 22.3629 14.9417C22.5901 14.9417 22.7936 14.7821 22.8409 14.5509C22.9776 13.8809 23.0469 13.191 23.0469 12.5002C23.0469 10.9626 22.7135 9.48311 22.0556 8.10257C21.9397 7.8592 21.6484 7.75582 21.4049 7.87178C21.1613 7.98775 21.0581 8.27919 21.1741 8.52276C21.7688 9.77093 22.0703 11.1091 22.0703 12.5002Z" fill="black"/>
<path d="M14.9414 16.8945H14.4531V10.5469C14.4531 10.2772 14.2345 10.0586 13.9648 10.0586H10.0586C9.78889 10.0586 9.57031 10.2772 9.57031 10.5469V12.5C9.57031 12.7697 9.78889 12.9883 10.0586 12.9883H10.5469V16.8945H10.0586C9.78889 16.8945 9.57031 17.1131 9.57031 17.3828V19.3359C9.57031 19.6056 9.78889 19.8242 10.0586 19.8242H14.9414C15.2111 19.8242 15.4297 19.6056 15.4297 19.3359V17.3828C15.4297 17.1131 15.2111 16.8945 14.9414 16.8945ZM14.4531 18.8476H10.5469V17.8711H11.0352C11.3049 17.8711 11.5234 17.6525 11.5234 17.3828V12.5C11.5234 12.2303 11.3049 12.0117 11.0352 12.0117H10.5469V11.0352H13.4766V17.3828C13.4766 17.6525 13.6953 17.8711 13.9648 17.8711H14.4531V18.8476Z" fill="black"/>
<path d="M12.5 9.08203C13.5769 9.08203 14.4531 8.20579 14.4531 7.1289C14.4531 6.05202 13.5769 5.17578 12.5 5.17578C11.4231 5.17578 10.5469 6.05202 10.5469 7.1289C10.5469 8.20579 11.4231 9.08203 12.5 9.08203ZM12.5 6.15234C13.0384 6.15234 13.4766 6.59046 13.4766 7.1289C13.4766 7.66735 13.0384 8.10547 12.5 8.10547C11.9616 8.10547 11.5234 7.66735 11.5234 7.1289C11.5234 6.59046 11.9616 6.15234 12.5 6.15234Z" fill="black"/>
<path d="M12.5 0C5.76288 0 2.12929e-05 5.75198 2.12929e-05 12.5C2.12929e-05 14.805 0.660535 17.2563 1.77423 19.1105L0.0250075 24.3574C-0.0333573 24.5327 0.0122283 24.7263 0.143072 24.8569C0.274488 24.9883 0.468275 25.0332 0.642797 24.9748L5.88972 23.2258C7.74366 24.3396 10.195 25 12.5 25C19.2388 25 25 19.2472 25 12.5C25 5.76114 19.2474 0 12.5 0ZM12.5 24.0234C10.2888 24.0234 7.93859 23.3709 6.21301 22.278C6.09075 22.2006 5.93835 22.1801 5.79721 22.2273L1.2604 23.7396L2.77273 19.2028C2.81927 19.0635 2.80058 18.911 2.72199 18.787C1.62909 17.0616 0.976583 14.7112 0.976583 12.5C0.976583 6.25362 6.25364 0.976561 12.5 0.976561C18.7464 0.976561 24.0234 6.25362 24.0234 12.5C24.0234 18.7464 18.7464 24.0234 12.5 24.0234Z" fill="black"/>
</g>
<defs>
<clipPath id="clip0_1_1768">
<rect width="25" height="25" fill="white"/>
</clipPath>
</defs>
</svg>
